<svg xmlns="http://www.w3.org/2000/svg" width="474" height="96" fill="none"><rect width="473.7" height="96" fill="#FC5200" rx="8"/><path fill="#fff" fill-rule="evenodd" d="M361.5 63.6h9.2l5.7-11.3 5.6 11.3h11.2l-16.8-32.5-16 30.9-6.2-9c3.8-1.8 6.2-5 6.2-9.5v-.1c0-3.2-1-5.6-2.9-7.4-2.2-2.2-5.7-3.6-11.2-3.6H331v31.2h10.5v-8.9h2.2l5.9 9h11.9Zm64.4-32.5L409 63.6h11.2l5.7-11.3 5.7 11.3h11.2l-16.9-32.5Zm-24.7 33.8L418 32.4h-11.2l-5.7 11.3-5.6-11.3h-11.2l16.9 32.5ZM346 47.3c2.5 0 4-1.2 4-3V44c0-2-1.6-3-4-3h-4.5v6.2h4.5Zm-37.3-6h-9.2v-9h28.8v9h-9.2v22.3h-10.4V41.2Zm-34.7 11-5.6 6.7c4 3.4 9.7 5.2 16 5.2 8.5 0 13.9-4 13.9-10.6 0-6.3-5.4-8.7-13.4-10.1-3.3-.7-4.1-1.2-4.1-2v-.1c0-.8.7-1.3 2.2-1.3 3 0 6.5 1 9.4 3l5.1-7c-3.6-2.9-8-4.3-14.1-4.3-8.6 0-13.3 4.6-13.3 10.5v.1c0 6.6 6.2 8.7 13.2 10 3.4.7 4.3 1.2 4.3 2.1v.1c0 .9-.8 1.4-2.6 1.4-3.7 0-7.6-1.1-11-3.7Z" clip-rule="evenodd"/><path fill="#fff" d="M235.8 62.4V42.9h4v7.6h8.5V43h4v19.5h-4V54h-8.5v8.4h-4ZM222 62.4v-16h-6.3V43h16.5v3.5h-6.3v16h-4ZM208 62.4V42.9h4v19.5h-4ZM184.2 62.4l-5.1-19.5h4.2l2.2 10.5.8 4.3 1-4.3 2.4-10.5h4.2l2.5 10.5c.5 1.9.6 2.8.9 4.3h.1l.8-4.3 2.2-10.5h4.2l-5.1 19.5h-4.2L193 52l-1-4.4h-.1l-1 4.4-2.4 10.4h-4.2ZM160 62.4v-16h-6.2V43h16.4v3.5H164v16h-4ZM143 62.8c-5.4 0-9-4-9-10.2 0-6 3.6-10 9-10 4.4 0 7.6 2.4 8.2 6l-4 1c-.5-2.2-2-3.5-4.2-3.5-3 0-5 2.5-5 6.5s2 6.6 5 6.6c2.2 0 3.7-1.3 4.2-3.5l4 1c-.6 3.6-3.8 6-8.2 6ZM117 62.4V42.9h13.4v3.4h-9.5v4.4h8.8V54H121v5h9.5v3.4h-13.5ZM95.5 62.4V42.9h4.4l6 10c.9 1.4 1.5 2.7 2.1 4h.2L108 52v-9h3.8v19.4h-4.4l-6-10-2.1-4.1h-.1v14h-3.8ZM74.1 62.4V42.9h4.4l6 10c.9 1.4 1.5 2.7 2.1 4h.2l-.1-4.9v-9h3.8v19.4H86l-6-10-2.1-4.1h-.1v14h-3.8ZM60.6 62.8c-5.7 0-9.3-4.2-9.3-10.2 0-6 3.6-10 9.3-10 5.6 0 9.2 4 9.2 10s-3.6 10.2-9.2 10.2Zm0-3.6c3.1 0 5.1-2.3 5.1-6.6 0-4.2-2-6.5-5.1-6.5-3.1 0-5.2 2.3-5.2 6.5 0 4.3 2 6.6 5.2 6.6ZM40 62.8c-5.5 0-9.1-4-9.1-10.2 0-6 3.6-10 9-10 4.4 0 7.7 2.4 8.2 6l-4 1c-.5-2.2-2-3.5-4.2-3.5-3 0-5 2.5-5 6.5s2 6.6 5 6.6c2.2 0 3.7-1.3 4.2-3.5l4 1c-.5 3.6-3.8 6-8.1 6Z"/></svg>
